<svg width="9" height="14" viewBox="0 0 9 14" fill="none" xmlns="http://www.w3.org/2000/svg">
<path d="M0.134 6.776H2.759C3.291 6.776 3.718 6.692 4.04 6.524C4.376 6.356 4.621 6.125 4.775 5.831C4.929 5.523 5.006 5.166 5.006 4.76C5.006 4.34 4.929 3.976 4.775 3.668C4.621 3.346 4.376 3.094 4.04 2.912C3.718 2.73 3.291 2.639 2.759 2.639H0.134V0.916999L2.612 1.694C3.69 1.694 4.558 1.827 5.216 2.093C5.874 2.359 6.35 2.744 6.644 3.248C6.952 3.738 7.106 4.312 7.106 4.97C7.106 5.474 7.001 5.95 6.791 6.398C6.581 6.846 6.287 7.231 5.909 7.553C5.531 7.875 5.083 8.113 4.565 8.267L7.61 14H5.3L2.528 8.456H0.134V6.776ZM0.134 2.282V0.916999H8.618V2.282H0.134ZM0.134 5.495V4.088H8.618V5.495H0.134Z" fill="#9C60FF"/>
</svg>
